<svg xmlns="http://www.w3.org/2000/svg" version="1.1" xmlns:xlink="http://www.w3.org/1999/xlink" xmlns:svgjs="http://svgjs.dev/svgjs" width="1500" height="1687" viewBox="0 0 1500 1687"><g transform="matrix(1,0,0,1,0.0009843749999163265,0)"><svg viewBox="0 0 320 360" data-background-color="#000000" preserveAspectRatio="xMidYMid meet" height="1687" width="1500" xmlns="http://www.w3.org/2000/svg" xmlns:xlink="http://www.w3.org/1999/xlink"><g id="tight-bounds" transform="matrix(1,0,0,1,-0.00020999999998139174,0)"><svg viewBox="0 0 320 360" height="360" width="320"><rect width="320.00041999999996" height="360" fill="url(#a0d9b0bb-3f98-4067-9610-68cabb72de26)" mask="url(#498e3bf0-9e27-4a76-8055-d21141037b3b)" data-fill-palette-color="tertiary"></rect><g><svg></svg></g><g><svg viewBox="0 0 320 360" height="360" width="320"><g><path transform="translate(-17.77778,2.22222) scale(3.55556,3.55556)" d="M95 52c0-12.871-5.692-24.431-14.682-32.318-7.887-8.99-19.447-14.682-32.318-14.682-23.71 0-43 19.29-43 43 0 12.868 5.69 24.426 14.677 32.313 7.887 8.993 19.449 14.687 32.323 14.687 0.084 0 0.166-0.006 0.25-0.006 0.084 0 0.166 0.006 0.25 0.006 23.472 0 42.5-19.028 42.5-42.5 0-0.084-0.006-0.166-0.006-0.25 0-0.084 0.006-0.166 0.006-0.25zM21.828 73.371c-4.245-5.978-6.77-13.259-6.822-21.121 0.135-20.511 16.732-37.109 37.244-37.244 7.862 0.052 15.144 2.577 21.121 6.822 6.853 6.645 11.129 15.93 11.129 26.172 0 20.126-16.374 36.5-36.5 36.5-10.242 0-19.527-4.276-26.172-11.129zM6 48c0-23.159 18.841-42 42-42 9.858 0 18.926 3.422 26.1 9.13-6.463-3.888-14.024-6.13-22.1-6.13-23.71 0-43 19.29-43 43 0 8.074 2.241 15.633 6.127 22.095-5.706-7.172-9.127-16.239-9.127-26.095zM52 89c-10.08 0-19.227-4.055-25.905-10.615 6.174 4.469 13.743 7.115 21.905 7.115 20.678 0 37.5-16.822 37.5-37.5 0-8.162-2.646-15.731-7.115-21.905 6.56 6.678 10.615 15.825 10.615 25.905 0 20.402-16.598 37-37 37z" fill="url(#a0d9b0bb-3f98-4067-9610-68cabb72de26)" fill-rule="nonzero" stroke="none" stroke-width="1" stroke-linecap="butt" stroke-linejoin="miter" stroke-miterlimit="10" stroke-dasharray="" stroke-dashoffset="0" font-family="none" font-weight="none" font-size="none" text-anchor="none" style="mix-blend-mode: normal" data-fill-palette-color="tertiary"></path></g><g transform="matrix(1,0,0,1,64,112.84990922420346)"><svg viewBox="0 0 192 134.30018155159308" height="134.30018155159308" width="192"><g><svg viewBox="0 0 192 134.30018155159308" height="134.30018155159308" width="192"><g><svg viewBox="0 0 192 134.30018155159308" height="134.30018155159308" width="192"><g transform="matrix(1,0,0,1,0,83.0029000549547)"><svg viewBox="0 0 192 51.297281496638405" height="51.297281496638405" width="192"><g id="textblocktransform"><svg viewBox="0 0 192 51.297281496638405" height="51.297281496638405" width="192" id="textblock"><g><svg viewBox="0 0 192 51.297281496638405" height="51.297281496638405" width="192"><g transform="matrix(1,0,0,1,0,0)"><svg width="192" viewBox="10.8 -41.5 171.03 45.7" height="51.297281496638405" data-palette-color="url(#fbc36537-9ba4-4ba1-9aa6-d2ef25942550)"></svg></g></svg></g></svg></g></svg></g><g transform="matrix(1,0,0,1,53.989426353567836,0)"><svg viewBox="0 0 84.02114729286433 70.89284302835428" height="70.89284302835428" width="84.02114729286433"><g><svg xmlns="http://www.w3.org/2000/svg" xmlns:xlink="http://www.w3.org/1999/xlink" version="1.0" x="0" y="0" viewBox="160 210 640 540" enable-background="new 0 0 960 960" xml:space="preserve" height="70.89284302835428" width="84.02114729286433" class="icon-icon-0" data-fill-palette-color="accent" id="icon-0"></svg></g></svg></g><g></g></svg></g></svg></g></svg></g></svg></g><defs></defs><mask id="faae5d19-836f-4f65-95a1-1616e6317113"><g id="SvgjsG2065"><svg viewBox="0 0 320 360" height="360" width="320"><g><svg></svg></g><g><svg viewBox="0 0 320 360" height="360" width="320"><g><path transform="translate(-17.77778,2.22222) scale(3.55556,3.55556)" d="M95 52c0-12.871-5.692-24.431-14.682-32.318-7.887-8.99-19.447-14.682-32.318-14.682-23.71 0-43 19.29-43 43 0 12.868 5.69 24.426 14.677 32.313 7.887 8.993 19.449 14.687 32.323 14.687 0.084 0 0.166-0.006 0.25-0.006 0.084 0 0.166 0.006 0.25 0.006 23.472 0 42.5-19.028 42.5-42.5 0-0.084-0.006-0.166-0.006-0.25 0-0.084 0.006-0.166 0.006-0.25zM21.828 73.371c-4.245-5.978-6.77-13.259-6.822-21.121 0.135-20.511 16.732-37.109 37.244-37.244 7.862 0.052 15.144 2.577 21.121 6.822 6.853 6.645 11.129 15.93 11.129 26.172 0 20.126-16.374 36.5-36.5 36.5-10.242 0-19.527-4.276-26.172-11.129zM6 48c0-23.159 18.841-42 42-42 9.858 0 18.926 3.422 26.1 9.13-6.463-3.888-14.024-6.13-22.1-6.13-23.71 0-43 19.29-43 43 0 8.074 2.241 15.633 6.127 22.095-5.706-7.172-9.127-16.239-9.127-26.095zM52 89c-10.08 0-19.227-4.055-25.905-10.615 6.174 4.469 13.743 7.115 21.905 7.115 20.678 0 37.5-16.822 37.5-37.5 0-8.162-2.646-15.731-7.115-21.905 6.56 6.678 10.615 15.825 10.615 25.905 0 20.402-16.598 37-37 37z" fill="black" fill-rule="nonzero" stroke="none" stroke-width="1" stroke-linecap="butt" stroke-linejoin="miter" stroke-miterlimit="10" stroke-dasharray="" stroke-dashoffset="0" font-family="none" font-weight="none" font-size="none" text-anchor="none" style="mix-blend-mode: normal"></path></g><g transform="matrix(1,0,0,1,64,112.84990922420346)"><svg viewBox="0 0 192 134.30018155159308" height="134.30018155159308" width="192"><g><svg viewBox="0 0 192 134.30018155159308" height="134.30018155159308" width="192"><g><svg viewBox="0 0 192 134.30018155159308" height="134.30018155159308" width="192"><g transform="matrix(1,0,0,1,0,83.0029000549547)"><svg viewBox="0 0 192 51.297281496638405" height="51.297281496638405" width="192"><g id="SvgjsG2064"><svg viewBox="0 0 192 51.297281496638405" height="51.297281496638405" width="192" id="SvgjsSvg2063"><g><svg viewBox="0 0 192 51.297281496638405" height="51.297281496638405" width="192"><g transform="matrix(1,0,0,1,0,0)"><svg width="192" viewBox="10.8 -41.5 171.03 45.7" height="51.297281496638405" data-palette-color="url(#fbc36537-9ba4-4ba1-9aa6-d2ef25942550)"><path d="M14.95-30.3L14.95-30.3Q12.95-30.3 11.88-31.43 10.8-32.55 10.8-34.15L10.8-34.15Q10.8-34.55 10.93-35.1 11.05-35.65 11.25-36.05L11.25-36.05Q11.9-35.75 13.18-35.63 14.45-35.5 16.15-35.5L16.15-35.5Q18.7-35.5 21.93-35.73 25.15-35.95 28.1-36.2 31.05-36.45 33.3-36.68 35.55-36.9 36.2-36.9L36.2-36.9Q38.05-36.9 38.88-35.52 39.7-34.15 40.1-31.85L40.1-31.85Q38.8-31.95 37.52-32.02 36.25-32.1 35.35-32.1L35.35-32.1Q33.75-32.1 32.13-32 30.5-31.9 28.85-31.7L28.85-31.7Q28.15-30.25 27.3-28.28 26.45-26.3 25.63-24.15 24.8-22 24.05-19.88 23.3-17.75 22.75-16.05L22.75-16.05Q21.65-12.75 20.83-9.95 20-7.15 19.38-4.73 18.75-2.3 18.3-0.1 17.85 2.1 17.5 4.2L17.5 4.2Q14.15 3.7 11.9 0L11.9 0Q12.3-1.55 12.88-3.38 13.45-5.2 14.23-7.53 15-9.85 16.05-12.8 17.1-15.75 18.45-19.5L18.45-19.5Q18.95-20.9 19.5-22.43 20.05-23.95 20.58-25.45 21.1-26.95 21.53-28.35 21.95-29.75 22.25-30.9L22.25-30.9Q20.15-30.65 18.28-30.48 16.4-30.3 14.95-30.3ZM44.35-30.3L44.35-30.3Q42.35-30.3 41.27-31.43 40.2-32.55 40.2-34.15L40.2-34.15Q40.2-34.55 40.32-35.1 40.45-35.65 40.65-36.05L40.65-36.05Q41.3-35.75 42.57-35.63 43.85-35.5 45.55-35.5L45.55-35.5Q48.1-35.5 51.32-35.73 54.55-35.95 57.5-36.2 60.45-36.45 62.7-36.68 64.95-36.9 65.6-36.9L65.6-36.9Q67.45-36.9 68.27-35.52 69.1-34.15 69.5-31.85L69.5-31.85Q68.2-31.95 66.92-32.02 65.65-32.1 64.75-32.1L64.75-32.1Q63.15-32.1 61.52-32 59.9-31.9 58.25-31.7L58.25-31.7Q57.55-30.25 56.7-28.28 55.85-26.3 55.02-24.15 54.2-22 53.45-19.88 52.7-17.75 52.15-16.05L52.15-16.05Q51.05-12.75 50.22-9.95 49.4-7.15 48.77-4.73 48.15-2.3 47.7-0.1 47.25 2.1 46.9 4.2L46.9 4.2Q43.55 3.7 41.3 0L41.3 0Q41.7-1.55 42.27-3.38 42.85-5.2 43.62-7.53 44.4-9.85 45.45-12.8 46.5-15.75 47.85-19.5L47.85-19.5Q48.35-20.9 48.9-22.43 49.45-23.95 49.97-25.45 50.5-26.95 50.92-28.35 51.35-29.75 51.65-30.9L51.65-30.9Q49.55-30.65 47.67-30.48 45.8-30.3 44.35-30.3ZM68.3 3.8L68.3 3.8Q65.45 2.95 64.45 2.18 63.45 1.4 63.45 0.05L63.45 0.05Q63.45-1.45 64.14-4.17 64.84-6.9 65.97-10.25 67.09-13.6 68.55-17.25 70-20.9 71.5-24.25 73-27.6 74.42-30.38 75.84-33.15 76.95-34.7L76.95-34.7 76.59-36.8Q77.3-36.8 78.55-36.45 79.8-36.1 81.07-35.6 82.34-35.1 83.32-34.58 84.3-34.05 84.4-33.7L84.4-33.7Q84.15-32.5 84-30.08 83.84-27.65 83.84-24.9L83.84-24.9Q83.84-19.45 84.27-14.23 84.7-9 86.25-3.6L86.25-3.6Q87.05-7.6 87.97-11.58 88.9-15.55 89.9-19.18 90.9-22.8 91.9-25.9 92.9-29 93.82-31.33 94.75-33.65 95.55-34.98 96.34-36.3 97-36.4L97-36.4Q97.55-36.3 98.2-35.98 98.84-35.65 99.45-35.2 100.05-34.75 100.55-34.2 101.05-33.65 101.34-33.1L101.34-33.1Q99.75-32.45 98.17-30.05 96.59-27.65 95.17-24.23 93.75-20.8 92.52-16.8 91.3-12.8 90.37-8.93 89.45-5.05 88.92-1.75 88.4 1.55 88.34 3.55L88.34 3.55Q88.34 3.65 88.4 3.7L88.4 3.7Q88.25 3.75 88.07 3.75 87.9 3.75 87.75 3.75L87.75 3.75Q85.45 3.75 83.67 3.18 81.9 2.6 81.34 1.55L81.34 1.55Q80.3-2.65 79.59-6.55 78.9-10.45 78.42-14.35 77.95-18.25 77.67-22.23 77.4-26.2 77.25-30.55L77.25-30.55Q76.3-29.05 75.25-26.63 74.2-24.2 73.2-21.3 72.2-18.4 71.27-15.2 70.34-12 69.65-8.95 68.95-5.9 68.55-3.18 68.14-0.45 68.14 1.55L68.14 1.55Q68.14 2.6 68.17 3.05 68.2 3.5 68.3 3.8ZM130.84-20.85L130.84-20.85Q132.44-20.85 133.37-19.95 134.29-19.05 134.29-17.45L134.29-17.45Q134.29-17.05 134.24-16.63 134.19-16.2 134.04-15.9L134.04-15.9Q133.39-16 132.59-16.07 131.79-16.15 130.69-16.15L130.69-16.15Q128.44-16.15 126.19-15.75 123.94-15.35 121.89-15.1L121.89-15.1Q119.64-9.8 118.19-5.15 116.74-0.5 115.94 4.05L115.94 4.05Q114.24 3.65 112.94 2.6 111.64 1.55 110.49-0.35L110.49-0.35Q110.84-1.15 111.34-2.27 111.84-3.4 112.54-5.13 113.24-6.85 114.22-9.33 115.19-11.8 116.54-15.25L116.54-15.25Q114.44-15.95 113.79-17.7L113.79-17.7Q114.04-17.95 115.19-18.28 116.34-18.6 117.99-19L117.99-19Q118.74-20.95 119.29-22.48 119.84-24 120.29-25.38 120.74-26.75 121.12-28.08 121.49-29.4 121.79-30.9L121.79-30.9 121.54-30.9Q119.64-30.9 118.47-31.8 117.29-32.7 117.29-34.15L117.29-34.15Q117.29-34.55 117.42-35.1 117.54-35.65 117.74-36.05L117.74-36.05Q118.69-35.9 119.62-35.85 120.54-35.8 122.04-35.8L122.04-35.8Q125.19-35.8 127.94-35.98 130.69-36.15 132.92-36.35 135.14-36.55 136.74-36.73 138.34-36.9 139.19-36.9L139.19-36.9Q140.34-36.9 141.24-35.7 142.14-34.5 142.64-32.3L142.64-32.3Q141.04-32.45 140.06-32.5 139.09-32.55 138.34-32.55L138.34-32.55Q135.79-32.55 133.67-32.33 131.54-32.1 129.64-31.8L129.64-31.8Q129.34-31.35 128.97-30.65 128.59-29.95 127.99-28.68 127.39-27.4 126.47-25.35 125.54-23.3 124.14-20.15L124.14-20.15Q126.09-20.45 127.87-20.65 129.64-20.85 130.84-20.85ZM136.94-3.2L136.94-3.2Q136.94-5.4 137.99-9.38 139.04-13.35 140.94-18.65L140.94-18.65Q144.04-27.1 146.76-32.73 149.49-38.35 152.09-41.5L152.09-41.5Q152.69-41.4 153.56-41 154.44-40.6 155.29-40.13 156.14-39.65 156.81-39.15 157.49-38.65 157.69-38.35L157.69-38.35Q153.79-33.75 150.84-28.45 147.89-23.15 145.44-16.3L145.44-16.3Q143.34-10.4 142.24-5.68 141.14-0.95 141.14 2.2L141.14 2.2Q141.14 3.05 141.14 3.25 141.14 3.45 141.19 3.65L141.19 3.65Q140.49 3.55 139.99 3.3 139.49 3.05 139.34 2.7L139.34 2.7Q139.24 2.45 138.79 1.98 138.34 1.5 137.99 1.25L137.99 1.25Q137.54 0.95 137.24-0.33 136.94-1.6 136.94-3.2ZM148.84-3.35L148.84-3.35Q148.84-3.8 148.91-4.48 148.99-5.15 149.19-6.28 149.39-7.4 149.71-9 150.04-10.6 150.54-12.85L150.54-12.85Q150.64-13.35 150.99-14.45 151.34-15.55 151.91-16.78 152.49-18 153.31-19.15 154.14-20.3 155.29-20.85L155.29-20.85Q156.14-20.65 157.54-19.83 158.94-19 159.94-17.55L159.94-17.55Q158.79-16.25 158.01-14.95 157.24-13.65 156.61-12.25 155.99-10.85 155.46-9.35 154.94-7.85 154.29-6.2L154.29-6.2Q153.74-4.8 153.29-3.33 152.84-1.85 152.79-0.75L152.79-0.75Q152.79 0.15 152.76 0.53 152.74 0.9 152.49 0.9L152.49 0.9Q152.29 0.9 151.69 0.65 151.09 0.4 150.46-0.13 149.84-0.65 149.34-1.45 148.84-2.25 148.84-3.35ZM158.39-25.05L158.39-25.05Q158.39-25.35 158.54-25.95L158.54-25.95Q158.29-26.2 158.11-26.7 157.94-27.2 157.94-27.6L157.94-27.6Q157.94-28.05 158.06-28.83 158.19-29.6 158.39-30.5 158.59-31.4 158.89-32.38 159.19-33.35 159.49-34.15L159.49-34.15Q160.09-34.15 160.96-33.83 161.84-33.5 162.74-32.98 163.64-32.45 164.39-31.83 165.14-31.2 165.54-30.65L165.54-30.65Q164.99-30.1 164.09-29.13 163.19-28.15 162.34-27.08 161.49-26 160.79-25.05 160.09-24.1 159.89-23.7L159.89-23.7Q159.29-23.8 158.84-24.23 158.39-24.65 158.39-25.05ZM176.13-0.3L176.13-0.3Q175.58 0.55 174.41 1.07 173.23 1.6 172.18 1.7L172.18 1.7Q171.33 0.7 170.28-1.03 169.23-2.75 168.28-5.05L168.28-5.05Q165.73-2.75 163.18-0.88 160.63 1 158.43 2.3L158.43 2.3Q157.88 2.2 157.53 1.7 157.18 1.2 157.13 0.4L157.13 0.4Q158.13-0.15 159.51-1.05 160.88-1.95 162.31-3.03 163.73-4.1 165.06-5.28 166.38-6.45 167.33-7.55L167.33-7.55Q166.48-9.55 165.76-11.68 165.03-13.8 164.51-15.78 163.98-17.75 163.68-19.38 163.38-21 163.38-22L163.38-22Q163.38-22.7 163.56-22.93 163.73-23.15 164.38-23.15L164.38-23.15Q164.88-23.15 165.61-23.05 166.33-22.95 167.08-22.8 167.83-22.65 168.58-22.48 169.33-22.3 169.88-22.1L169.88-22.1Q169.78-21.55 169.78-21.15 169.78-20.75 169.78-20L169.78-20Q169.78-18.05 170.11-16.03 170.43-14 171.18-11.65L171.18-11.65Q173.23-14 174.98-16.88 176.73-19.75 178.53-23.75L178.53-23.75Q179.78-23.5 180.68-23.03 181.58-22.55 181.83-22L181.83-22Q181.28-19.7 178.73-16.2 176.18-12.7 172.23-8.75L172.23-8.75Q172.93-6.85 173.93-4.73 174.93-2.6 176.13-0.3Z" opacity="1" transform="matrix(1,0,0,1,0,0)" fill="white" class="wordmark-text-0" id="SvgjsPath2062"></path></svg></g></svg></g></svg></g></svg></g><g transform="matrix(1,0,0,1,53.989426353567836,0)"><svg viewBox="0 0 84.02114729286433 70.89284302835428" height="70.89284302835428" width="84.02114729286433"><g><svg xmlns="http://www.w3.org/2000/svg" xmlns:xlink="http://www.w3.org/1999/xlink" version="1.0" x="0" y="0" viewBox="160 210 640 540" enable-background="new 0 0 960 960" xml:space="preserve" height="70.89284302835428" width="84.02114729286433" class="icon-icon-0" data-fill-palette-color="accent" id="SvgjsSvg2061"><g fill="black"><path fill="black" d="M160 210v500c0 22.063 17.906 40 40 40h560c22.094 0 40-17.938 40-40V210H160zM540 660c0 10.969-9 20-20 20H240c-11 0-20-9.031-20-20V380.016c0-11.016 9-20 20-20h280c11 0 20 8.984 20 20V660zM740 675.969c0 2.234-1.797 4.031-4 4.031H586.859c-2.203 0-4.016-1.797-4.016-4.031v-21.094c0-2.188 1.813-3.969 4.016-3.969H736c2.203 0 4 1.781 4 3.969V675.969zM740 617.781c0 2.188-1.797 3.969-4 3.969H586.859c-2.203 0-4.016-1.781-4.016-3.969V596.75c0-2.219 1.813-4.016 4.016-4.016H736c2.203 0 4 1.797 4 4.016V617.781zM740 559.609c0 2.234-1.797 4.016-4 4.016H586.859c-2.203 0-4.016-1.781-4.016-4.016v-21.094c0-2.188 1.813-3.984 4.016-3.984H736c2.203 0 4 1.797 4 3.984V559.609zM740 501.438c0 2.234-1.797 4.031-4 4.031H586.859c-2.203 0-4.016-1.797-4.016-4.031v-21.094c0-2.188 1.813-3.969 4.016-3.969H736c2.203 0 4 1.781 4 3.969V501.438zM740 443.25c0 2.188-1.797 3.969-4 3.969H586.859c-2.203 0-4.016-1.781-4.016-3.969v-21.016c0-2.219 1.813-4.016 4.016-4.016H736c2.203 0 4 1.797 4 4.016V443.25zM740 385.094c0 2.219-1.797 4.016-4 4.016H586.859c-2.203 0-4.016-1.797-4.016-4.016V364c0-2.188 1.813-3.984 4.016-3.984H736c2.203 0 4 1.797 4 3.984V385.094z"></path><polygon fill="black" points="380,400.016 410.688,491.641 510,491.641 429.656,548.313 460.328,640 380,583.313 299.672,640    330.344,548.313 250,491.641 349.313,491.641  "></polygon></g></svg></g></svg></g><g></g></svg></g></svg></g></svg></g></svg></g><defs><mask></mask></defs></svg><rect width="320" height="360" fill="black" stroke="none" visibility="hidden"></rect></g></mask><linearGradient x1="0.054" x2="0.941" y1="0.5" y2="0.5" id="fbc36537-9ba4-4ba1-9aa6-d2ef25942550"><stop stop-color="#9c7945" offset="0"></stop><stop stop-color="#faf3aa" offset="0.498"></stop><stop stop-color="#9c7945" offset="1"></stop></linearGradient><rect width="320.00041999999996" height="360" fill="url(#fbc36537-9ba4-4ba1-9aa6-d2ef25942550)" mask="url(#faae5d19-836f-4f65-95a1-1616e6317113)" data-fill-palette-color="primary"></rect><mask id="f3788b5a-2979-46c1-9ad2-80793d6b7e96"><g id="SvgjsG2084"><svg viewBox="0 0 320 360" height="360" width="320"><g><svg></svg></g><g><svg viewBox="0 0 320 360" height="360" width="320"><g><path transform="translate(-17.77778,2.22222) scale(3.55556,3.55556)" d="M95 52c0-12.871-5.692-24.431-14.682-32.318-7.887-8.99-19.447-14.682-32.318-14.682-23.71 0-43 19.29-43 43 0 12.868 5.69 24.426 14.677 32.313 7.887 8.993 19.449 14.687 32.323 14.687 0.084 0 0.166-0.006 0.25-0.006 0.084 0 0.166 0.006 0.25 0.006 23.472 0 42.5-19.028 42.5-42.5 0-0.084-0.006-0.166-0.006-0.25 0-0.084 0.006-0.166 0.006-0.25zM21.828 73.371c-4.245-5.978-6.77-13.259-6.822-21.121 0.135-20.511 16.732-37.109 37.244-37.244 7.862 0.052 15.144 2.577 21.121 6.822 6.853 6.645 11.129 15.93 11.129 26.172 0 20.126-16.374 36.5-36.5 36.5-10.242 0-19.527-4.276-26.172-11.129zM6 48c0-23.159 18.841-42 42-42 9.858 0 18.926 3.422 26.1 9.13-6.463-3.888-14.024-6.13-22.1-6.13-23.71 0-43 19.29-43 43 0 8.074 2.241 15.633 6.127 22.095-5.706-7.172-9.127-16.239-9.127-26.095zM52 89c-10.08 0-19.227-4.055-25.905-10.615 6.174 4.469 13.743 7.115 21.905 7.115 20.678 0 37.5-16.822 37.5-37.5 0-8.162-2.646-15.731-7.115-21.905 6.56 6.678 10.615 15.825 10.615 25.905 0 20.402-16.598 37-37 37z" fill="black" fill-rule="nonzero" stroke="none" stroke-width="1" stroke-linecap="butt" stroke-linejoin="miter" stroke-miterlimit="10" stroke-dasharray="" stroke-dashoffset="0" font-family="none" font-weight="none" font-size="none" text-anchor="none" style="mix-blend-mode: normal"></path></g><g transform="matrix(1,0,0,1,64,112.84990922420346)"><svg viewBox="0 0 192 134.30018155159308" height="134.30018155159308" width="192"><g><svg viewBox="0 0 192 134.30018155159308" height="134.30018155159308" width="192"><g><svg viewBox="0 0 192 134.30018155159308" height="134.30018155159308" width="192"><g transform="matrix(1,0,0,1,0,83.0029000549547)"><svg viewBox="0 0 192 51.297281496638405" height="51.297281496638405" width="192"><g id="SvgjsG2083"><svg viewBox="0 0 192 51.297281496638405" height="51.297281496638405" width="192" id="SvgjsSvg2082"><g><svg viewBox="0 0 192 51.297281496638405" height="51.297281496638405" width="192"><g transform="matrix(1,0,0,1,0,0)"><svg width="192" viewBox="10.8 -41.5 171.03 45.7" height="51.297281496638405" data-palette-color="url(#fbc36537-9ba4-4ba1-9aa6-d2ef25942550)"></svg></g></svg></g></svg></g></svg></g><g transform="matrix(1,0,0,1,53.989426353567836,0)"><svg viewBox="0 0 84.02114729286433 70.89284302835428" height="70.89284302835428" width="84.02114729286433"><g><svg xmlns="http://www.w3.org/2000/svg" xmlns:xlink="http://www.w3.org/1999/xlink" version="1.0" x="0" y="0" viewBox="160 210 640 540" enable-background="new 0 0 960 960" xml:space="preserve" height="70.89284302835428" width="84.02114729286433" class="icon-icon-0" data-fill-palette-color="accent" id="SvgjsSvg2081"><g fill="white"><path fill="white" d="M160 210v500c0 22.063 17.906 40 40 40h560c22.094 0 40-17.938 40-40V210H160zM540 660c0 10.969-9 20-20 20H240c-11 0-20-9.031-20-20V380.016c0-11.016 9-20 20-20h280c11 0 20 8.984 20 20V660zM740 675.969c0 2.234-1.797 4.031-4 4.031H586.859c-2.203 0-4.016-1.797-4.016-4.031v-21.094c0-2.188 1.813-3.969 4.016-3.969H736c2.203 0 4 1.781 4 3.969V675.969zM740 617.781c0 2.188-1.797 3.969-4 3.969H586.859c-2.203 0-4.016-1.781-4.016-3.969V596.75c0-2.219 1.813-4.016 4.016-4.016H736c2.203 0 4 1.797 4 4.016V617.781zM740 559.609c0 2.234-1.797 4.016-4 4.016H586.859c-2.203 0-4.016-1.781-4.016-4.016v-21.094c0-2.188 1.813-3.984 4.016-3.984H736c2.203 0 4 1.797 4 3.984V559.609zM740 501.438c0 2.234-1.797 4.031-4 4.031H586.859c-2.203 0-4.016-1.797-4.016-4.031v-21.094c0-2.188 1.813-3.969 4.016-3.969H736c2.203 0 4 1.781 4 3.969V501.438zM740 443.25c0 2.188-1.797 3.969-4 3.969H586.859c-2.203 0-4.016-1.781-4.016-3.969v-21.016c0-2.219 1.813-4.016 4.016-4.016H736c2.203 0 4 1.797 4 4.016V443.25zM740 385.094c0 2.219-1.797 4.016-4 4.016H586.859c-2.203 0-4.016-1.797-4.016-4.016V364c0-2.188 1.813-3.984 4.016-3.984H736c2.203 0 4 1.797 4 3.984V385.094z"></path><polygon fill="white" points="380,400.016 410.688,491.641 510,491.641 429.656,548.313 460.328,640 380,583.313 299.672,640    330.344,548.313 250,491.641 349.313,491.641  "></polygon></g></svg></g></svg></g><g></g></svg></g></svg></g></svg></g></svg></g><defs><mask></mask></defs><mask><g id="SvgjsG2080"><svg viewBox="0 0 320 360" height="360" width="320"><g><svg></svg></g><g><svg viewBox="0 0 320 360" height="360" width="320"><g><path transform="translate(-17.77778,2.22222) scale(3.55556,3.55556)" d="M95 52c0-12.871-5.692-24.431-14.682-32.318-7.887-8.99-19.447-14.682-32.318-14.682-23.71 0-43 19.29-43 43 0 12.868 5.69 24.426 14.677 32.313 7.887 8.993 19.449 14.687 32.323 14.687 0.084 0 0.166-0.006 0.25-0.006 0.084 0 0.166 0.006 0.25 0.006 23.472 0 42.5-19.028 42.5-42.5 0-0.084-0.006-0.166-0.006-0.25 0-0.084 0.006-0.166 0.006-0.25zM21.828 73.371c-4.245-5.978-6.77-13.259-6.822-21.121 0.135-20.511 16.732-37.109 37.244-37.244 7.862 0.052 15.144 2.577 21.121 6.822 6.853 6.645 11.129 15.93 11.129 26.172 0 20.126-16.374 36.5-36.5 36.5-10.242 0-19.527-4.276-26.172-11.129zM6 48c0-23.159 18.841-42 42-42 9.858 0 18.926 3.422 26.1 9.13-6.463-3.888-14.024-6.13-22.1-6.13-23.71 0-43 19.29-43 43 0 8.074 2.241 15.633 6.127 22.095-5.706-7.172-9.127-16.239-9.127-26.095zM52 89c-10.08 0-19.227-4.055-25.905-10.615 6.174 4.469 13.743 7.115 21.905 7.115 20.678 0 37.5-16.822 37.5-37.5 0-8.162-2.646-15.731-7.115-21.905 6.56 6.678 10.615 15.825 10.615 25.905 0 20.402-16.598 37-37 37z" fill="black" fill-rule="nonzero" stroke="none" stroke-width="1" stroke-linecap="butt" stroke-linejoin="miter" stroke-miterlimit="10" stroke-dasharray="" stroke-dashoffset="0" font-family="none" font-weight="none" font-size="none" text-anchor="none" style="mix-blend-mode: normal"></path></g><g transform="matrix(1,0,0,1,64,112.84990922420346)"><svg viewBox="0 0 192 134.30018155159308" height="134.30018155159308" width="192"><g><svg viewBox="0 0 192 134.30018155159308" height="134.30018155159308" width="192"><g><svg viewBox="0 0 192 134.30018155159308" height="134.30018155159308" width="192"><g transform="matrix(1,0,0,1,0,83.0029000549547)"><svg viewBox="0 0 192 51.297281496638405" height="51.297281496638405" width="192"><g id="SvgjsG2079"><svg viewBox="0 0 192 51.297281496638405" height="51.297281496638405" width="192" id="SvgjsSvg2078"><g><svg viewBox="0 0 192 51.297281496638405" height="51.297281496638405" width="192"><g transform="matrix(1,0,0,1,0,0)"><svg width="192" viewBox="10.8 -41.5 171.03 45.7" height="51.297281496638405" data-palette-color="url(#fbc36537-9ba4-4ba1-9aa6-d2ef25942550)"><path d="M14.95-30.3L14.95-30.3Q12.95-30.3 11.88-31.43 10.8-32.55 10.8-34.15L10.8-34.15Q10.8-34.55 10.93-35.1 11.05-35.65 11.25-36.05L11.25-36.05Q11.9-35.75 13.18-35.63 14.45-35.5 16.15-35.5L16.15-35.5Q18.7-35.5 21.93-35.73 25.15-35.95 28.1-36.2 31.05-36.45 33.3-36.68 35.55-36.9 36.2-36.9L36.2-36.9Q38.05-36.9 38.88-35.52 39.7-34.15 40.1-31.85L40.1-31.85Q38.8-31.95 37.52-32.02 36.25-32.1 35.35-32.1L35.35-32.1Q33.75-32.1 32.13-32 30.5-31.9 28.85-31.7L28.85-31.7Q28.15-30.25 27.3-28.28 26.45-26.3 25.63-24.15 24.8-22 24.05-19.88 23.3-17.75 22.75-16.05L22.75-16.05Q21.65-12.75 20.83-9.95 20-7.15 19.38-4.73 18.75-2.3 18.3-0.1 17.85 2.1 17.5 4.2L17.5 4.2Q14.15 3.7 11.9 0L11.9 0Q12.3-1.55 12.88-3.38 13.45-5.2 14.23-7.53 15-9.85 16.05-12.8 17.1-15.75 18.45-19.5L18.45-19.5Q18.95-20.9 19.5-22.43 20.05-23.95 20.58-25.45 21.1-26.95 21.53-28.35 21.95-29.75 22.25-30.9L22.25-30.9Q20.15-30.65 18.28-30.48 16.4-30.3 14.95-30.3ZM44.35-30.3L44.35-30.3Q42.35-30.3 41.27-31.43 40.2-32.55 40.2-34.15L40.2-34.15Q40.2-34.55 40.32-35.1 40.45-35.65 40.65-36.05L40.65-36.05Q41.3-35.75 42.57-35.63 43.85-35.5 45.55-35.5L45.55-35.5Q48.1-35.5 51.32-35.73 54.55-35.95 57.5-36.2 60.45-36.45 62.7-36.68 64.95-36.9 65.6-36.9L65.6-36.9Q67.45-36.9 68.27-35.52 69.1-34.15 69.5-31.85L69.5-31.85Q68.2-31.95 66.92-32.02 65.65-32.1 64.75-32.1L64.75-32.1Q63.15-32.1 61.52-32 59.9-31.9 58.25-31.7L58.25-31.7Q57.55-30.25 56.7-28.28 55.85-26.3 55.02-24.15 54.2-22 53.45-19.88 52.7-17.75 52.15-16.05L52.15-16.05Q51.05-12.75 50.22-9.95 49.4-7.15 48.77-4.73 48.15-2.3 47.7-0.1 47.25 2.1 46.9 4.2L46.9 4.2Q43.55 3.7 41.3 0L41.3 0Q41.7-1.55 42.27-3.38 42.85-5.2 43.62-7.53 44.4-9.85 45.45-12.8 46.5-15.75 47.85-19.5L47.85-19.5Q48.35-20.9 48.9-22.43 49.45-23.95 49.97-25.45 50.5-26.95 50.92-28.35 51.35-29.75 51.65-30.9L51.65-30.9Q49.55-30.65 47.67-30.48 45.8-30.3 44.35-30.3ZM68.3 3.8L68.3 3.8Q65.45 2.95 64.45 2.18 63.45 1.4 63.45 0.05L63.45 0.05Q63.45-1.45 64.14-4.17 64.84-6.9 65.97-10.25 67.09-13.6 68.55-17.25 70-20.9 71.5-24.25 73-27.6 74.42-30.38 75.84-33.15 76.95-34.7L76.95-34.7 76.59-36.8Q77.3-36.8 78.55-36.45 79.8-36.1 81.07-35.6 82.34-35.1 83.32-34.58 84.3-34.05 84.4-33.7L84.4-33.7Q84.15-32.5 84-30.08 83.84-27.65 83.84-24.9L83.84-24.9Q83.84-19.45 84.27-14.23 84.7-9 86.25-3.6L86.25-3.6Q87.05-7.6 87.97-11.58 88.9-15.55 89.9-19.18 90.9-22.8 91.9-25.9 92.9-29 93.82-31.33 94.75-33.65 95.55-34.98 96.34-36.3 97-36.4L97-36.4Q97.55-36.3 98.2-35.98 98.84-35.65 99.45-35.2 100.05-34.75 100.55-34.2 101.05-33.65 101.34-33.1L101.34-33.1Q99.75-32.45 98.17-30.05 96.59-27.65 95.17-24.23 93.75-20.8 92.52-16.8 91.3-12.8 90.37-8.93 89.45-5.05 88.92-1.75 88.4 1.55 88.34 3.55L88.34 3.55Q88.34 3.65 88.4 3.7L88.4 3.7Q88.25 3.75 88.07 3.75 87.9 3.75 87.75 3.75L87.75 3.75Q85.45 3.75 83.67 3.18 81.9 2.6 81.34 1.55L81.34 1.55Q80.3-2.65 79.59-6.55 78.9-10.45 78.42-14.35 77.95-18.25 77.67-22.23 77.4-26.2 77.25-30.55L77.25-30.55Q76.3-29.05 75.25-26.63 74.2-24.2 73.2-21.3 72.2-18.4 71.27-15.2 70.34-12 69.65-8.95 68.95-5.9 68.55-3.18 68.14-0.45 68.14 1.55L68.14 1.55Q68.14 2.6 68.17 3.05 68.2 3.5 68.3 3.8ZM130.84-20.85L130.84-20.85Q132.44-20.85 133.37-19.95 134.29-19.05 134.29-17.45L134.29-17.45Q134.29-17.05 134.24-16.63 134.19-16.2 134.04-15.9L134.04-15.9Q133.39-16 132.59-16.07 131.79-16.15 130.69-16.15L130.69-16.15Q128.44-16.15 126.19-15.75 123.94-15.35 121.89-15.1L121.89-15.1Q119.64-9.8 118.19-5.15 116.74-0.5 115.94 4.05L115.94 4.05Q114.24 3.65 112.94 2.6 111.64 1.55 110.49-0.35L110.49-0.35Q110.84-1.15 111.34-2.27 111.84-3.4 112.54-5.13 113.24-6.85 114.22-9.33 115.19-11.8 116.54-15.25L116.54-15.25Q114.44-15.95 113.79-17.7L113.79-17.7Q114.04-17.95 115.19-18.28 116.34-18.6 117.99-19L117.99-19Q118.74-20.95 119.29-22.48 119.84-24 120.29-25.38 120.74-26.75 121.12-28.08 121.49-29.4 121.79-30.9L121.79-30.9 121.54-30.9Q119.64-30.9 118.47-31.8 117.29-32.7 117.29-34.15L117.29-34.15Q117.29-34.55 117.42-35.1 117.54-35.65 117.74-36.05L117.74-36.05Q118.69-35.9 119.62-35.85 120.54-35.8 122.04-35.8L122.04-35.8Q125.19-35.8 127.94-35.98 130.69-36.15 132.92-36.35 135.14-36.55 136.74-36.73 138.34-36.9 139.19-36.9L139.19-36.9Q140.34-36.9 141.24-35.7 142.14-34.5 142.64-32.3L142.64-32.3Q141.04-32.45 140.06-32.5 139.09-32.55 138.34-32.55L138.34-32.55Q135.79-32.55 133.67-32.33 131.54-32.1 129.64-31.8L129.64-31.8Q129.34-31.35 128.97-30.65 128.59-29.95 127.99-28.68 127.39-27.4 126.47-25.35 125.54-23.3 124.14-20.15L124.14-20.15Q126.09-20.45 127.87-20.65 129.64-20.85 130.84-20.85ZM136.94-3.2L136.94-3.2Q136.94-5.4 137.99-9.38 139.04-13.35 140.94-18.65L140.94-18.65Q144.04-27.1 146.76-32.73 149.49-38.35 152.09-41.5L152.09-41.5Q152.69-41.4 153.56-41 154.44-40.6 155.29-40.13 156.14-39.65 156.81-39.15 157.49-38.65 157.69-38.35L157.69-38.35Q153.79-33.75 150.84-28.45 147.89-23.15 145.44-16.3L145.44-16.3Q143.34-10.4 142.24-5.68 141.14-0.95 141.14 2.2L141.14 2.2Q141.14 3.05 141.14 3.25 141.14 3.45 141.19 3.65L141.19 3.65Q140.49 3.55 139.99 3.3 139.49 3.05 139.34 2.7L139.34 2.7Q139.24 2.45 138.79 1.98 138.34 1.5 137.99 1.25L137.99 1.25Q137.54 0.95 137.24-0.33 136.94-1.6 136.94-3.2ZM148.84-3.35L148.84-3.35Q148.84-3.8 148.91-4.48 148.99-5.15 149.19-6.28 149.39-7.4 149.71-9 150.04-10.6 150.54-12.85L150.54-12.85Q150.64-13.35 150.99-14.45 151.34-15.55 151.91-16.78 152.49-18 153.31-19.15 154.14-20.3 155.29-20.85L155.29-20.85Q156.14-20.65 157.54-19.83 158.94-19 159.94-17.55L159.94-17.55Q158.79-16.25 158.01-14.95 157.24-13.65 156.61-12.25 155.99-10.85 155.46-9.35 154.94-7.85 154.29-6.2L154.29-6.2Q153.74-4.8 153.29-3.33 152.84-1.85 152.79-0.75L152.79-0.75Q152.79 0.15 152.76 0.53 152.74 0.9 152.49 0.9L152.49 0.9Q152.29 0.9 151.69 0.65 151.09 0.4 150.46-0.13 149.84-0.65 149.34-1.45 148.84-2.25 148.84-3.35ZM158.39-25.05L158.39-25.05Q158.39-25.35 158.54-25.95L158.54-25.95Q158.29-26.2 158.11-26.7 157.94-27.2 157.94-27.6L157.94-27.6Q157.94-28.05 158.06-28.83 158.19-29.6 158.39-30.5 158.59-31.4 158.89-32.38 159.19-33.35 159.49-34.15L159.49-34.15Q160.09-34.15 160.96-33.83 161.84-33.5 162.74-32.98 163.64-32.45 164.39-31.83 165.14-31.2 165.54-30.65L165.54-30.65Q164.99-30.1 164.09-29.13 163.19-28.15 162.34-27.08 161.49-26 160.79-25.05 160.09-24.1 159.89-23.7L159.89-23.7Q159.29-23.8 158.84-24.23 158.39-24.65 158.39-25.05ZM176.13-0.3L176.13-0.3Q175.58 0.55 174.41 1.07 173.23 1.6 172.18 1.7L172.18 1.7Q171.33 0.7 170.28-1.03 169.23-2.75 168.28-5.05L168.28-5.05Q165.73-2.75 163.18-0.88 160.63 1 158.43 2.3L158.43 2.3Q157.88 2.2 157.53 1.7 157.18 1.2 157.13 0.4L157.13 0.4Q158.13-0.15 159.51-1.05 160.88-1.95 162.31-3.03 163.73-4.1 165.06-5.28 166.38-6.45 167.33-7.55L167.33-7.55Q166.48-9.55 165.76-11.68 165.03-13.8 164.51-15.78 163.98-17.75 163.68-19.38 163.38-21 163.38-22L163.38-22Q163.38-22.7 163.56-22.93 163.73-23.15 164.38-23.15L164.38-23.15Q164.88-23.15 165.61-23.05 166.33-22.95 167.08-22.8 167.83-22.65 168.58-22.48 169.33-22.3 169.88-22.1L169.88-22.1Q169.78-21.55 169.78-21.15 169.78-20.75 169.78-20L169.78-20Q169.78-18.05 170.11-16.03 170.43-14 171.18-11.65L171.18-11.65Q173.23-14 174.98-16.88 176.73-19.75 178.53-23.75L178.53-23.75Q179.78-23.5 180.68-23.03 181.58-22.55 181.83-22L181.83-22Q181.28-19.7 178.73-16.2 176.18-12.7 172.23-8.75L172.23-8.75Q172.93-6.85 173.93-4.73 174.93-2.6 176.13-0.3Z" opacity="1" transform="matrix(1,0,0,1,0,0)" fill="black" class="wordmark-text-0" id="SvgjsPath2077"></path></svg></g></svg></g></svg></g></svg></g><g transform="matrix(1,0,0,1,53.989426353567836,0)"><svg viewBox="0 0 84.02114729286433 70.89284302835428" height="70.89284302835428" width="84.02114729286433"><g><svg xmlns="http://www.w3.org/2000/svg" xmlns:xlink="http://www.w3.org/1999/xlink" version="1.0" x="0" y="0" viewBox="160 210 640 540" enable-background="new 0 0 960 960" xml:space="preserve" height="70.89284302835428" width="84.02114729286433" class="icon-icon-0" data-fill-palette-color="accent" id="SvgjsSvg2076"><g fill="black"><path fill="black" d="M160 210v500c0 22.063 17.906 40 40 40h560c22.094 0 40-17.938 40-40V210H160zM540 660c0 10.969-9 20-20 20H240c-11 0-20-9.031-20-20V380.016c0-11.016 9-20 20-20h280c11 0 20 8.984 20 20V660zM740 675.969c0 2.234-1.797 4.031-4 4.031H586.859c-2.203 0-4.016-1.797-4.016-4.031v-21.094c0-2.188 1.813-3.969 4.016-3.969H736c2.203 0 4 1.781 4 3.969V675.969zM740 617.781c0 2.188-1.797 3.969-4 3.969H586.859c-2.203 0-4.016-1.781-4.016-3.969V596.75c0-2.219 1.813-4.016 4.016-4.016H736c2.203 0 4 1.797 4 4.016V617.781zM740 559.609c0 2.234-1.797 4.016-4 4.016H586.859c-2.203 0-4.016-1.781-4.016-4.016v-21.094c0-2.188 1.813-3.984 4.016-3.984H736c2.203 0 4 1.797 4 3.984V559.609zM740 501.438c0 2.234-1.797 4.031-4 4.031H586.859c-2.203 0-4.016-1.797-4.016-4.031v-21.094c0-2.188 1.813-3.969 4.016-3.969H736c2.203 0 4 1.781 4 3.969V501.438zM740 443.25c0 2.188-1.797 3.969-4 3.969H586.859c-2.203 0-4.016-1.781-4.016-3.969v-21.016c0-2.219 1.813-4.016 4.016-4.016H736c2.203 0 4 1.797 4 4.016V443.25zM740 385.094c0 2.219-1.797 4.016-4 4.016H586.859c-2.203 0-4.016-1.797-4.016-4.016V364c0-2.188 1.813-3.984 4.016-3.984H736c2.203 0 4 1.797 4 3.984V385.094z"></path><polygon fill="black" points="380,400.016 410.688,491.641 510,491.641 429.656,548.313 460.328,640 380,583.313 299.672,640    330.344,548.313 250,491.641 349.313,491.641  "></polygon></g></svg></g></svg></g><g></g></svg></g></svg></g></svg></g></svg></g><defs><mask></mask></defs></svg><rect width="320" height="360" fill="black" stroke="none" visibility="hidden"></rect></g></mask></svg><rect width="320" height="360" fill="black" stroke="none" visibility="hidden"></rect></g></mask><linearGradient x1="0.054" x2="0.941" y1="0.5" y2="0.5" id="6e549473-56bf-4a52-8bdc-d9284de1944c"><stop stop-color="#9c7945" offset="0"></stop><stop stop-color="#faf3aa" offset="0.498"></stop><stop stop-color="#9c7945" offset="1"></stop></linearGradient><rect width="320.00041999999996" height="360" fill="url(#6e549473-56bf-4a52-8bdc-d9284de1944c)" mask="url(#f3788b5a-2979-46c1-9ad2-80793d6b7e96)" data-fill-palette-color="accent"></rect><mask id="498e3bf0-9e27-4a76-8055-d21141037b3b"><g id="SvgjsG2102"><svg viewBox="0 0 320 360" height="360" width="320"><g><svg></svg></g><g><svg viewBox="0 0 320 360" height="360" width="320"><g><path transform="translate(-17.77778,2.22222) scale(3.55556,3.55556)" d="M95 52c0-12.871-5.692-24.431-14.682-32.318-7.887-8.99-19.447-14.682-32.318-14.682-23.71 0-43 19.29-43 43 0 12.868 5.69 24.426 14.677 32.313 7.887 8.993 19.449 14.687 32.323 14.687 0.084 0 0.166-0.006 0.25-0.006 0.084 0 0.166 0.006 0.25 0.006 23.472 0 42.5-19.028 42.5-42.5 0-0.084-0.006-0.166-0.006-0.25 0-0.084 0.006-0.166 0.006-0.25zM21.828 73.371c-4.245-5.978-6.77-13.259-6.822-21.121 0.135-20.511 16.732-37.109 37.244-37.244 7.862 0.052 15.144 2.577 21.121 6.822 6.853 6.645 11.129 15.93 11.129 26.172 0 20.126-16.374 36.5-36.5 36.5-10.242 0-19.527-4.276-26.172-11.129zM6 48c0-23.159 18.841-42 42-42 9.858 0 18.926 3.422 26.1 9.13-6.463-3.888-14.024-6.13-22.1-6.13-23.71 0-43 19.29-43 43 0 8.074 2.241 15.633 6.127 22.095-5.706-7.172-9.127-16.239-9.127-26.095zM52 89c-10.08 0-19.227-4.055-25.905-10.615 6.174 4.469 13.743 7.115 21.905 7.115 20.678 0 37.5-16.822 37.5-37.5 0-8.162-2.646-15.731-7.115-21.905 6.56 6.678 10.615 15.825 10.615 25.905 0 20.402-16.598 37-37 37z" fill="white" fill-rule="nonzero" stroke="none" stroke-width="1" stroke-linecap="butt" stroke-linejoin="miter" stroke-miterlimit="10" stroke-dasharray="" stroke-dashoffset="0" font-family="none" font-weight="none" font-size="none" text-anchor="none" style="mix-blend-mode: normal"></path></g><g transform="matrix(1,0,0,1,64,112.84990922420346)"><svg viewBox="0 0 192 134.30018155159308" height="134.30018155159308" width="192"><g><svg viewBox="0 0 192 134.30018155159308" height="134.30018155159308" width="192"><g><svg viewBox="0 0 192 134.30018155159308" height="134.30018155159308" width="192"><g transform="matrix(1,0,0,1,0,83.0029000549547)"><svg viewBox="0 0 192 51.297281496638405" height="51.297281496638405" width="192"><g id="SvgjsG2101"><svg viewBox="0 0 192 51.297281496638405" height="51.297281496638405" width="192" id="SvgjsSvg2100"><g><svg viewBox="0 0 192 51.297281496638405" height="51.297281496638405" width="192"><g transform="matrix(1,0,0,1,0,0)"><svg width="192" viewBox="10.8 -41.5 171.03 45.7" height="51.297281496638405" data-palette-color="url(#fbc36537-9ba4-4ba1-9aa6-d2ef25942550)"></svg></g></svg></g></svg></g></svg></g><g transform="matrix(1,0,0,1,53.989426353567836,0)"><svg viewBox="0 0 84.02114729286433 70.89284302835428" height="70.89284302835428" width="84.02114729286433"><g><svg xmlns="http://www.w3.org/2000/svg" xmlns:xlink="http://www.w3.org/1999/xlink" version="1.0" x="0" y="0" viewBox="160 210 640 540" enable-background="new 0 0 960 960" xml:space="preserve" height="70.89284302835428" width="84.02114729286433" class="icon-icon-0" data-fill-palette-color="accent" id="SvgjsSvg2099"></svg></g></svg></g><g></g></svg></g></svg></g></svg></g></svg></g><defs><mask></mask></defs><mask><g id="SvgjsG2098"><svg viewBox="0 0 320 360" height="360" width="320"><g><svg></svg></g><g><svg viewBox="0 0 320 360" height="360" width="320"><g><path transform="translate(-17.77778,2.22222) scale(3.55556,3.55556)" d="M95 52c0-12.871-5.692-24.431-14.682-32.318-7.887-8.99-19.447-14.682-32.318-14.682-23.71 0-43 19.29-43 43 0 12.868 5.69 24.426 14.677 32.313 7.887 8.993 19.449 14.687 32.323 14.687 0.084 0 0.166-0.006 0.25-0.006 0.084 0 0.166 0.006 0.25 0.006 23.472 0 42.5-19.028 42.5-42.5 0-0.084-0.006-0.166-0.006-0.25 0-0.084 0.006-0.166 0.006-0.25zM21.828 73.371c-4.245-5.978-6.77-13.259-6.822-21.121 0.135-20.511 16.732-37.109 37.244-37.244 7.862 0.052 15.144 2.577 21.121 6.822 6.853 6.645 11.129 15.93 11.129 26.172 0 20.126-16.374 36.5-36.5 36.5-10.242 0-19.527-4.276-26.172-11.129zM6 48c0-23.159 18.841-42 42-42 9.858 0 18.926 3.422 26.1 9.13-6.463-3.888-14.024-6.13-22.1-6.13-23.71 0-43 19.29-43 43 0 8.074 2.241 15.633 6.127 22.095-5.706-7.172-9.127-16.239-9.127-26.095zM52 89c-10.08 0-19.227-4.055-25.905-10.615 6.174 4.469 13.743 7.115 21.905 7.115 20.678 0 37.5-16.822 37.5-37.5 0-8.162-2.646-15.731-7.115-21.905 6.56 6.678 10.615 15.825 10.615 25.905 0 20.402-16.598 37-37 37z" fill="black" fill-rule="nonzero" stroke="none" stroke-width="1" stroke-linecap="butt" stroke-linejoin="miter" stroke-miterlimit="10" stroke-dasharray="" stroke-dashoffset="0" font-family="none" font-weight="none" font-size="none" text-anchor="none" style="mix-blend-mode: normal"></path></g><g transform="matrix(1,0,0,1,64,112.84990922420346)"><svg viewBox="0 0 192 134.30018155159308" height="134.30018155159308" width="192"><g><svg viewBox="0 0 192 134.30018155159308" height="134.30018155159308" width="192"><g><svg viewBox="0 0 192 134.30018155159308" height="134.30018155159308" width="192"><g transform="matrix(1,0,0,1,0,83.0029000549547)"><svg viewBox="0 0 192 51.297281496638405" height="51.297281496638405" width="192"><g id="SvgjsG2097"><svg viewBox="0 0 192 51.297281496638405" height="51.297281496638405" width="192" id="SvgjsSvg2096"><g><svg viewBox="0 0 192 51.297281496638405" height="51.297281496638405" width="192"><g transform="matrix(1,0,0,1,0,0)"><svg width="192" viewBox="10.8 -41.5 171.03 45.7" height="51.297281496638405" data-palette-color="url(#fbc36537-9ba4-4ba1-9aa6-d2ef25942550)"><path d="M14.95-30.3L14.95-30.3Q12.95-30.3 11.88-31.43 10.8-32.55 10.8-34.15L10.8-34.15Q10.8-34.55 10.93-35.1 11.05-35.65 11.25-36.05L11.25-36.05Q11.9-35.75 13.18-35.63 14.45-35.5 16.15-35.5L16.15-35.5Q18.7-35.5 21.93-35.73 25.15-35.95 28.1-36.2 31.05-36.45 33.3-36.68 35.55-36.9 36.2-36.9L36.2-36.9Q38.05-36.9 38.88-35.52 39.7-34.15 40.1-31.85L40.1-31.85Q38.8-31.95 37.52-32.02 36.25-32.1 35.35-32.1L35.35-32.1Q33.75-32.1 32.13-32 30.5-31.9 28.85-31.7L28.85-31.7Q28.15-30.25 27.3-28.28 26.45-26.3 25.63-24.15 24.8-22 24.05-19.88 23.3-17.75 22.75-16.05L22.75-16.05Q21.65-12.75 20.83-9.95 20-7.15 19.38-4.73 18.75-2.3 18.3-0.1 17.85 2.1 17.5 4.2L17.5 4.2Q14.15 3.7 11.9 0L11.9 0Q12.3-1.55 12.88-3.38 13.45-5.2 14.23-7.53 15-9.85 16.05-12.8 17.1-15.75 18.45-19.5L18.45-19.5Q18.95-20.9 19.5-22.43 20.05-23.95 20.58-25.45 21.1-26.95 21.53-28.35 21.95-29.75 22.25-30.9L22.25-30.9Q20.15-30.65 18.28-30.48 16.4-30.3 14.95-30.3ZM44.35-30.3L44.35-30.3Q42.35-30.3 41.27-31.43 40.2-32.55 40.2-34.15L40.2-34.15Q40.2-34.55 40.32-35.1 40.45-35.65 40.65-36.05L40.65-36.05Q41.3-35.75 42.57-35.63 43.85-35.5 45.55-35.5L45.55-35.5Q48.1-35.5 51.32-35.73 54.55-35.95 57.5-36.2 60.45-36.45 62.7-36.68 64.95-36.9 65.6-36.9L65.6-36.9Q67.45-36.9 68.27-35.52 69.1-34.15 69.5-31.85L69.5-31.85Q68.2-31.95 66.92-32.02 65.65-32.1 64.75-32.1L64.75-32.1Q63.15-32.1 61.52-32 59.9-31.9 58.25-31.7L58.25-31.7Q57.55-30.25 56.7-28.28 55.85-26.3 55.02-24.15 54.2-22 53.45-19.88 52.7-17.75 52.15-16.05L52.15-16.05Q51.05-12.75 50.22-9.95 49.4-7.15 48.77-4.73 48.15-2.3 47.7-0.1 47.25 2.1 46.9 4.2L46.9 4.2Q43.55 3.7 41.3 0L41.3 0Q41.7-1.55 42.27-3.38 42.85-5.2 43.62-7.53 44.4-9.85 45.45-12.8 46.5-15.75 47.85-19.5L47.85-19.5Q48.35-20.9 48.9-22.43 49.45-23.95 49.97-25.45 50.5-26.95 50.92-28.35 51.35-29.75 51.65-30.9L51.65-30.9Q49.55-30.65 47.67-30.48 45.8-30.3 44.35-30.3ZM68.3 3.8L68.3 3.8Q65.45 2.95 64.45 2.18 63.45 1.4 63.45 0.05L63.45 0.05Q63.45-1.45 64.14-4.17 64.84-6.9 65.97-10.25 67.09-13.6 68.55-17.25 70-20.9 71.5-24.25 73-27.6 74.42-30.38 75.84-33.15 76.95-34.7L76.95-34.7 76.59-36.8Q77.3-36.8 78.55-36.45 79.8-36.1 81.07-35.6 82.34-35.1 83.32-34.58 84.3-34.05 84.4-33.7L84.4-33.7Q84.15-32.5 84-30.08 83.84-27.65 83.84-24.9L83.84-24.9Q83.84-19.45 84.27-14.23 84.7-9 86.25-3.6L86.25-3.6Q87.05-7.6 87.97-11.58 88.9-15.55 89.9-19.18 90.9-22.8 91.9-25.9 92.9-29 93.82-31.33 94.75-33.65 95.55-34.98 96.34-36.3 97-36.4L97-36.4Q97.55-36.3 98.2-35.98 98.84-35.65 99.45-35.2 100.05-34.75 100.55-34.2 101.05-33.65 101.34-33.1L101.34-33.1Q99.75-32.45 98.17-30.05 96.59-27.65 95.17-24.23 93.75-20.8 92.52-16.8 91.3-12.8 90.37-8.93 89.45-5.05 88.92-1.75 88.4 1.55 88.34 3.55L88.34 3.55Q88.34 3.65 88.4 3.7L88.4 3.7Q88.25 3.75 88.07 3.75 87.9 3.75 87.75 3.75L87.75 3.75Q85.45 3.75 83.67 3.18 81.9 2.6 81.34 1.55L81.34 1.55Q80.3-2.65 79.59-6.55 78.9-10.45 78.42-14.35 77.95-18.25 77.67-22.23 77.4-26.2 77.25-30.55L77.25-30.55Q76.3-29.05 75.25-26.63 74.2-24.2 73.2-21.3 72.2-18.4 71.27-15.2 70.34-12 69.65-8.95 68.95-5.9 68.55-3.18 68.14-0.45 68.14 1.55L68.14 1.55Q68.14 2.6 68.17 3.05 68.2 3.5 68.3 3.8ZM130.84-20.85L130.84-20.85Q132.44-20.85 133.37-19.95 134.29-19.05 134.29-17.45L134.29-17.45Q134.29-17.05 134.24-16.63 134.19-16.2 134.04-15.9L134.04-15.9Q133.39-16 132.59-16.07 131.79-16.15 130.69-16.15L130.69-16.15Q128.44-16.15 126.19-15.75 123.94-15.35 121.89-15.1L121.89-15.1Q119.64-9.8 118.19-5.15 116.74-0.5 115.94 4.05L115.94 4.05Q114.24 3.65 112.94 2.6 111.64 1.55 110.49-0.35L110.49-0.35Q110.84-1.15 111.34-2.27 111.84-3.4 112.54-5.13 113.24-6.85 114.22-9.33 115.19-11.8 116.54-15.25L116.54-15.25Q114.44-15.95 113.79-17.7L113.79-17.7Q114.04-17.95 115.19-18.28 116.34-18.6 117.99-19L117.99-19Q118.74-20.95 119.29-22.48 119.84-24 120.29-25.38 120.74-26.75 121.12-28.08 121.49-29.4 121.79-30.9L121.79-30.9 121.54-30.9Q119.64-30.9 118.47-31.8 117.29-32.7 117.29-34.15L117.29-34.15Q117.29-34.55 117.42-35.1 117.54-35.65 117.74-36.05L117.74-36.05Q118.69-35.9 119.62-35.85 120.54-35.8 122.04-35.8L122.04-35.8Q125.19-35.8 127.94-35.98 130.69-36.15 132.92-36.35 135.14-36.55 136.74-36.73 138.34-36.9 139.19-36.9L139.19-36.9Q140.34-36.9 141.24-35.7 142.14-34.5 142.64-32.3L142.64-32.3Q141.04-32.45 140.06-32.5 139.09-32.55 138.34-32.55L138.34-32.55Q135.79-32.55 133.67-32.33 131.54-32.1 129.64-31.8L129.64-31.8Q129.34-31.35 128.97-30.65 128.59-29.95 127.99-28.68 127.39-27.4 126.47-25.35 125.54-23.3 124.14-20.15L124.14-20.15Q126.09-20.45 127.87-20.65 129.64-20.85 130.84-20.85ZM136.94-3.2L136.94-3.2Q136.94-5.4 137.99-9.38 139.04-13.35 140.94-18.65L140.94-18.65Q144.04-27.1 146.76-32.73 149.49-38.35 152.09-41.5L152.09-41.5Q152.69-41.4 153.56-41 154.44-40.6 155.29-40.13 156.14-39.65 156.81-39.15 157.49-38.65 157.69-38.35L157.69-38.35Q153.79-33.75 150.84-28.45 147.89-23.15 145.44-16.3L145.44-16.3Q143.34-10.4 142.24-5.68 141.14-0.95 141.14 2.2L141.14 2.2Q141.14 3.05 141.14 3.25 141.14 3.45 141.19 3.65L141.19 3.65Q140.49 3.55 139.99 3.3 139.49 3.05 139.34 2.7L139.34 2.7Q139.24 2.45 138.79 1.98 138.34 1.5 137.99 1.25L137.99 1.25Q137.54 0.95 137.24-0.33 136.94-1.6 136.94-3.2ZM148.84-3.35L148.84-3.35Q148.84-3.8 148.91-4.48 148.99-5.15 149.19-6.28 149.39-7.4 149.71-9 150.04-10.6 150.54-12.85L150.54-12.85Q150.64-13.35 150.99-14.45 151.34-15.55 151.91-16.78 152.49-18 153.31-19.15 154.14-20.3 155.29-20.85L155.29-20.85Q156.14-20.65 157.54-19.83 158.94-19 159.94-17.55L159.94-17.55Q158.79-16.25 158.01-14.95 157.24-13.65 156.61-12.25 155.99-10.85 155.46-9.35 154.94-7.85 154.29-6.2L154.29-6.2Q153.74-4.8 153.29-3.33 152.84-1.85 152.79-0.75L152.79-0.75Q152.79 0.15 152.76 0.53 152.74 0.9 152.49 0.9L152.49 0.9Q152.29 0.9 151.69 0.65 151.09 0.4 150.46-0.13 149.84-0.65 149.34-1.45 148.84-2.25 148.84-3.35ZM158.39-25.05L158.39-25.05Q158.39-25.35 158.54-25.95L158.54-25.95Q158.29-26.2 158.11-26.7 157.94-27.2 157.94-27.6L157.94-27.6Q157.94-28.05 158.06-28.83 158.19-29.6 158.39-30.5 158.59-31.4 158.89-32.38 159.19-33.35 159.49-34.15L159.49-34.15Q160.09-34.15 160.96-33.83 161.84-33.5 162.74-32.98 163.64-32.45 164.39-31.83 165.14-31.2 165.54-30.65L165.54-30.65Q164.99-30.1 164.09-29.13 163.19-28.15 162.34-27.08 161.49-26 160.79-25.05 160.09-24.1 159.89-23.7L159.89-23.7Q159.29-23.8 158.84-24.23 158.39-24.65 158.39-25.05ZM176.13-0.3L176.13-0.3Q175.58 0.55 174.41 1.07 173.23 1.6 172.18 1.7L172.18 1.7Q171.33 0.7 170.28-1.03 169.23-2.75 168.28-5.05L168.28-5.05Q165.73-2.75 163.18-0.88 160.63 1 158.43 2.3L158.43 2.3Q157.88 2.2 157.53 1.7 157.18 1.2 157.13 0.4L157.13 0.4Q158.13-0.15 159.51-1.05 160.88-1.95 162.31-3.03 163.73-4.1 165.06-5.28 166.38-6.45 167.33-7.55L167.33-7.55Q166.48-9.55 165.76-11.68 165.03-13.8 164.51-15.78 163.98-17.75 163.68-19.38 163.38-21 163.38-22L163.38-22Q163.38-22.7 163.56-22.93 163.73-23.15 164.38-23.15L164.38-23.15Q164.88-23.15 165.61-23.05 166.33-22.95 167.08-22.8 167.83-22.65 168.58-22.48 169.33-22.3 169.88-22.1L169.88-22.1Q169.78-21.55 169.78-21.15 169.78-20.75 169.78-20L169.78-20Q169.78-18.05 170.11-16.03 170.43-14 171.18-11.65L171.18-11.65Q173.23-14 174.98-16.88 176.73-19.75 178.53-23.75L178.53-23.75Q179.78-23.5 180.68-23.03 181.58-22.55 181.83-22L181.83-22Q181.28-19.7 178.73-16.2 176.18-12.7 172.23-8.75L172.23-8.75Q172.93-6.85 173.93-4.73 174.93-2.6 176.13-0.3Z" opacity="1" transform="matrix(1,0,0,1,0,0)" fill="black" class="wordmark-text-0" id="SvgjsPath2095"></path></svg></g></svg></g></svg></g></svg></g><g transform="matrix(1,0,0,1,53.989426353567836,0)"><svg viewBox="0 0 84.02114729286433 70.89284302835428" height="70.89284302835428" width="84.02114729286433"><g><svg xmlns="http://www.w3.org/2000/svg" xmlns:xlink="http://www.w3.org/1999/xlink" version="1.0" x="0" y="0" viewBox="160 210 640 540" enable-background="new 0 0 960 960" xml:space="preserve" height="70.89284302835428" width="84.02114729286433" class="icon-icon-0" data-fill-palette-color="accent" id="SvgjsSvg2094"><g fill="black"><path fill="black" d="M160 210v500c0 22.063 17.906 40 40 40h560c22.094 0 40-17.938 40-40V210H160zM540 660c0 10.969-9 20-20 20H240c-11 0-20-9.031-20-20V380.016c0-11.016 9-20 20-20h280c11 0 20 8.984 20 20V660zM740 675.969c0 2.234-1.797 4.031-4 4.031H586.859c-2.203 0-4.016-1.797-4.016-4.031v-21.094c0-2.188 1.813-3.969 4.016-3.969H736c2.203 0 4 1.781 4 3.969V675.969zM740 617.781c0 2.188-1.797 3.969-4 3.969H586.859c-2.203 0-4.016-1.781-4.016-3.969V596.75c0-2.219 1.813-4.016 4.016-4.016H736c2.203 0 4 1.797 4 4.016V617.781zM740 559.609c0 2.234-1.797 4.016-4 4.016H586.859c-2.203 0-4.016-1.781-4.016-4.016v-21.094c0-2.188 1.813-3.984 4.016-3.984H736c2.203 0 4 1.797 4 3.984V559.609zM740 501.438c0 2.234-1.797 4.031-4 4.031H586.859c-2.203 0-4.016-1.797-4.016-4.031v-21.094c0-2.188 1.813-3.969 4.016-3.969H736c2.203 0 4 1.781 4 3.969V501.438zM740 443.25c0 2.188-1.797 3.969-4 3.969H586.859c-2.203 0-4.016-1.781-4.016-3.969v-21.016c0-2.219 1.813-4.016 4.016-4.016H736c2.203 0 4 1.797 4 4.016V443.25zM740 385.094c0 2.219-1.797 4.016-4 4.016H586.859c-2.203 0-4.016-1.797-4.016-4.016V364c0-2.188 1.813-3.984 4.016-3.984H736c2.203 0 4 1.797 4 3.984V385.094z"></path><polygon fill="black" points="380,400.016 410.688,491.641 510,491.641 429.656,548.313 460.328,640 380,583.313 299.672,640    330.344,548.313 250,491.641 349.313,491.641  "></polygon></g></svg></g></svg></g><g></g></svg></g></svg></g></svg></g></svg></g><defs><mask></mask></defs></svg><rect width="320" height="360" fill="black" stroke="none" visibility="hidden"></rect></g></mask><mask><g id="SvgjsG2093"><svg viewBox="0 0 320 360" height="360" width="320"><g><svg></svg></g><g><svg viewBox="0 0 320 360" height="360" width="320"><g><path transform="translate(-17.77778,2.22222) scale(3.55556,3.55556)" d="M95 52c0-12.871-5.692-24.431-14.682-32.318-7.887-8.99-19.447-14.682-32.318-14.682-23.71 0-43 19.29-43 43 0 12.868 5.69 24.426 14.677 32.313 7.887 8.993 19.449 14.687 32.323 14.687 0.084 0 0.166-0.006 0.25-0.006 0.084 0 0.166 0.006 0.25 0.006 23.472 0 42.5-19.028 42.5-42.5 0-0.084-0.006-0.166-0.006-0.25 0-0.084 0.006-0.166 0.006-0.25zM21.828 73.371c-4.245-5.978-6.77-13.259-6.822-21.121 0.135-20.511 16.732-37.109 37.244-37.244 7.862 0.052 15.144 2.577 21.121 6.822 6.853 6.645 11.129 15.93 11.129 26.172 0 20.126-16.374 36.5-36.5 36.5-10.242 0-19.527-4.276-26.172-11.129zM6 48c0-23.159 18.841-42 42-42 9.858 0 18.926 3.422 26.1 9.13-6.463-3.888-14.024-6.13-22.1-6.13-23.71 0-43 19.29-43 43 0 8.074 2.241 15.633 6.127 22.095-5.706-7.172-9.127-16.239-9.127-26.095zM52 89c-10.08 0-19.227-4.055-25.905-10.615 6.174 4.469 13.743 7.115 21.905 7.115 20.678 0 37.5-16.822 37.5-37.5 0-8.162-2.646-15.731-7.115-21.905 6.56 6.678 10.615 15.825 10.615 25.905 0 20.402-16.598 37-37 37z" fill="black" fill-rule="nonzero" stroke="none" stroke-width="1" stroke-linecap="butt" stroke-linejoin="miter" stroke-miterlimit="10" stroke-dasharray="" stroke-dashoffset="0" font-family="none" font-weight="none" font-size="none" text-anchor="none" style="mix-blend-mode: normal"></path></g><g transform="matrix(1,0,0,1,64,112.84990922420346)"><svg viewBox="0 0 192 134.30018155159308" height="134.30018155159308" width="192"><g><svg viewBox="0 0 192 134.30018155159308" height="134.30018155159308" width="192"><g><svg viewBox="0 0 192 134.30018155159308" height="134.30018155159308" width="192"><g transform="matrix(1,0,0,1,0,83.0029000549547)"><svg viewBox="0 0 192 51.297281496638405" height="51.297281496638405" width="192"><g id="SvgjsG2092"><svg viewBox="0 0 192 51.297281496638405" height="51.297281496638405" width="192" id="SvgjsSvg2091"><g><svg viewBox="0 0 192 51.297281496638405" height="51.297281496638405" width="192"><g transform="matrix(1,0,0,1,0,0)"><svg width="192" viewBox="10.8 -41.5 171.03 45.7" height="51.297281496638405" data-palette-color="url(#fbc36537-9ba4-4ba1-9aa6-d2ef25942550)"></svg></g></svg></g></svg></g></svg></g><g transform="matrix(1,0,0,1,53.989426353567836,0)"><svg viewBox="0 0 84.02114729286433 70.89284302835428" height="70.89284302835428" width="84.02114729286433"><g><svg xmlns="http://www.w3.org/2000/svg" xmlns:xlink="http://www.w3.org/1999/xlink" version="1.0" x="0" y="0" viewBox="160 210 640 540" enable-background="new 0 0 960 960" xml:space="preserve" height="70.89284302835428" width="84.02114729286433" class="icon-icon-0" data-fill-palette-color="accent" id="SvgjsSvg2090"><g fill="black"><path fill="black" d="M160 210v500c0 22.063 17.906 40 40 40h560c22.094 0 40-17.938 40-40V210H160zM540 660c0 10.969-9 20-20 20H240c-11 0-20-9.031-20-20V380.016c0-11.016 9-20 20-20h280c11 0 20 8.984 20 20V660zM740 675.969c0 2.234-1.797 4.031-4 4.031H586.859c-2.203 0-4.016-1.797-4.016-4.031v-21.094c0-2.188 1.813-3.969 4.016-3.969H736c2.203 0 4 1.781 4 3.969V675.969zM740 617.781c0 2.188-1.797 3.969-4 3.969H586.859c-2.203 0-4.016-1.781-4.016-3.969V596.75c0-2.219 1.813-4.016 4.016-4.016H736c2.203 0 4 1.797 4 4.016V617.781zM740 559.609c0 2.234-1.797 4.016-4 4.016H586.859c-2.203 0-4.016-1.781-4.016-4.016v-21.094c0-2.188 1.813-3.984 4.016-3.984H736c2.203 0 4 1.797 4 3.984V559.609zM740 501.438c0 2.234-1.797 4.031-4 4.031H586.859c-2.203 0-4.016-1.797-4.016-4.031v-21.094c0-2.188 1.813-3.969 4.016-3.969H736c2.203 0 4 1.781 4 3.969V501.438zM740 443.25c0 2.188-1.797 3.969-4 3.969H586.859c-2.203 0-4.016-1.781-4.016-3.969v-21.016c0-2.219 1.813-4.016 4.016-4.016H736c2.203 0 4 1.797 4 4.016V443.25zM740 385.094c0 2.219-1.797 4.016-4 4.016H586.859c-2.203 0-4.016-1.797-4.016-4.016V364c0-2.188 1.813-3.984 4.016-3.984H736c2.203 0 4 1.797 4 3.984V385.094z"></path><polygon fill="black" points="380,400.016 410.688,491.641 510,491.641 429.656,548.313 460.328,640 380,583.313 299.672,640    330.344,548.313 250,491.641 349.313,491.641  "></polygon></g></svg></g></svg></g><g></g></svg></g></svg></g></svg></g></svg></g><defs><mask></mask></defs><mask><g id="SvgjsG2089"><svg viewBox="0 0 320 360" height="360" width="320"><g><svg></svg></g><g><svg viewBox="0 0 320 360" height="360" width="320"><g><path transform="translate(-17.77778,2.22222) scale(3.55556,3.55556)" d="M95 52c0-12.871-5.692-24.431-14.682-32.318-7.887-8.99-19.447-14.682-32.318-14.682-23.71 0-43 19.29-43 43 0 12.868 5.69 24.426 14.677 32.313 7.887 8.993 19.449 14.687 32.323 14.687 0.084 0 0.166-0.006 0.25-0.006 0.084 0 0.166 0.006 0.25 0.006 23.472 0 42.5-19.028 42.5-42.5 0-0.084-0.006-0.166-0.006-0.25 0-0.084 0.006-0.166 0.006-0.25zM21.828 73.371c-4.245-5.978-6.77-13.259-6.822-21.121 0.135-20.511 16.732-37.109 37.244-37.244 7.862 0.052 15.144 2.577 21.121 6.822 6.853 6.645 11.129 15.93 11.129 26.172 0 20.126-16.374 36.5-36.5 36.5-10.242 0-19.527-4.276-26.172-11.129zM6 48c0-23.159 18.841-42 42-42 9.858 0 18.926 3.422 26.1 9.13-6.463-3.888-14.024-6.13-22.1-6.13-23.71 0-43 19.29-43 43 0 8.074 2.241 15.633 6.127 22.095-5.706-7.172-9.127-16.239-9.127-26.095zM52 89c-10.08 0-19.227-4.055-25.905-10.615 6.174 4.469 13.743 7.115 21.905 7.115 20.678 0 37.5-16.822 37.5-37.5 0-8.162-2.646-15.731-7.115-21.905 6.56 6.678 10.615 15.825 10.615 25.905 0 20.402-16.598 37-37 37z" fill="black" fill-rule="nonzero" stroke="none" stroke-width="1" stroke-linecap="butt" stroke-linejoin="miter" stroke-miterlimit="10" stroke-dasharray="" stroke-dashoffset="0" font-family="none" font-weight="none" font-size="none" text-anchor="none" style="mix-blend-mode: normal"></path></g><g transform="matrix(1,0,0,1,64,112.84990922420346)"><svg viewBox="0 0 192 134.30018155159308" height="134.30018155159308" width="192"><g><svg viewBox="0 0 192 134.30018155159308" height="134.30018155159308" width="192"><g><svg viewBox="0 0 192 134.30018155159308" height="134.30018155159308" width="192"><g transform="matrix(1,0,0,1,0,83.0029000549547)"><svg viewBox="0 0 192 51.297281496638405" height="51.297281496638405" width="192"><g id="SvgjsG2088"><svg viewBox="0 0 192 51.297281496638405" height="51.297281496638405" width="192" id="SvgjsSvg2087"><g><svg viewBox="0 0 192 51.297281496638405" height="51.297281496638405" width="192"><g transform="matrix(1,0,0,1,0,0)"><svg width="192" viewBox="10.8 -41.5 171.03 45.7" height="51.297281496638405" data-palette-color="url(#fbc36537-9ba4-4ba1-9aa6-d2ef25942550)"><path d="M14.95-30.3L14.95-30.3Q12.95-30.3 11.88-31.43 10.8-32.55 10.8-34.15L10.8-34.15Q10.8-34.55 10.93-35.1 11.05-35.65 11.25-36.05L11.25-36.05Q11.9-35.75 13.18-35.63 14.45-35.5 16.15-35.5L16.15-35.5Q18.7-35.5 21.93-35.73 25.15-35.95 28.1-36.2 31.05-36.45 33.3-36.68 35.55-36.9 36.2-36.9L36.2-36.9Q38.05-36.9 38.88-35.52 39.7-34.15 40.1-31.85L40.1-31.85Q38.8-31.95 37.52-32.02 36.25-32.1 35.35-32.1L35.35-32.1Q33.75-32.1 32.13-32 30.5-31.9 28.85-31.7L28.85-31.7Q28.15-30.25 27.3-28.28 26.45-26.3 25.63-24.15 24.8-22 24.05-19.88 23.3-17.75 22.75-16.05L22.75-16.05Q21.65-12.75 20.83-9.95 20-7.15 19.38-4.73 18.75-2.3 18.3-0.1 17.85 2.1 17.5 4.2L17.5 4.2Q14.15 3.7 11.9 0L11.9 0Q12.3-1.55 12.88-3.38 13.45-5.2 14.23-7.53 15-9.85 16.05-12.8 17.1-15.75 18.45-19.5L18.45-19.5Q18.95-20.9 19.5-22.43 20.05-23.95 20.58-25.45 21.1-26.95 21.53-28.35 21.95-29.75 22.25-30.9L22.25-30.9Q20.15-30.65 18.28-30.48 16.4-30.3 14.95-30.3ZM44.35-30.3L44.35-30.3Q42.35-30.3 41.27-31.43 40.2-32.55 40.2-34.15L40.2-34.15Q40.2-34.55 40.32-35.1 40.45-35.65 40.65-36.05L40.65-36.05Q41.3-35.75 42.57-35.63 43.85-35.5 45.55-35.5L45.55-35.5Q48.1-35.5 51.32-35.73 54.55-35.95 57.5-36.2 60.45-36.45 62.7-36.68 64.95-36.9 65.6-36.9L65.6-36.9Q67.45-36.9 68.27-35.52 69.1-34.15 69.5-31.85L69.5-31.85Q68.2-31.95 66.92-32.02 65.65-32.1 64.75-32.1L64.75-32.1Q63.15-32.1 61.52-32 59.9-31.9 58.25-31.7L58.25-31.7Q57.55-30.25 56.7-28.28 55.85-26.3 55.02-24.15 54.2-22 53.45-19.88 52.7-17.75 52.15-16.05L52.15-16.05Q51.05-12.75 50.22-9.95 49.4-7.15 48.77-4.73 48.15-2.3 47.7-0.1 47.25 2.1 46.9 4.2L46.9 4.2Q43.55 3.7 41.3 0L41.3 0Q41.7-1.55 42.27-3.38 42.85-5.2 43.62-7.53 44.4-9.85 45.45-12.8 46.5-15.75 47.85-19.5L47.85-19.5Q48.35-20.9 48.9-22.43 49.45-23.95 49.97-25.45 50.5-26.95 50.92-28.35 51.35-29.75 51.65-30.9L51.65-30.9Q49.55-30.65 47.67-30.48 45.8-30.3 44.35-30.3ZM68.3 3.8L68.3 3.8Q65.45 2.95 64.45 2.18 63.45 1.4 63.45 0.05L63.45 0.05Q63.45-1.45 64.14-4.17 64.84-6.9 65.97-10.25 67.09-13.6 68.55-17.25 70-20.9 71.5-24.25 73-27.6 74.42-30.38 75.84-33.15 76.95-34.7L76.95-34.7 76.59-36.8Q77.3-36.8 78.55-36.45 79.8-36.1 81.07-35.6 82.34-35.1 83.32-34.58 84.3-34.05 84.4-33.7L84.4-33.7Q84.15-32.5 84-30.08 83.84-27.65 83.84-24.9L83.84-24.9Q83.84-19.45 84.27-14.23 84.7-9 86.25-3.6L86.25-3.6Q87.05-7.6 87.97-11.58 88.9-15.55 89.9-19.18 90.9-22.8 91.9-25.9 92.9-29 93.82-31.33 94.75-33.65 95.55-34.98 96.34-36.3 97-36.4L97-36.4Q97.55-36.3 98.2-35.98 98.84-35.65 99.45-35.2 100.05-34.75 100.55-34.2 101.05-33.65 101.34-33.1L101.34-33.1Q99.75-32.45 98.17-30.05 96.59-27.65 95.17-24.23 93.75-20.8 92.52-16.8 91.3-12.8 90.37-8.93 89.45-5.05 88.92-1.75 88.4 1.55 88.34 3.55L88.34 3.55Q88.34 3.65 88.4 3.7L88.4 3.7Q88.25 3.75 88.07 3.75 87.9 3.75 87.75 3.75L87.75 3.75Q85.45 3.75 83.67 3.18 81.9 2.6 81.34 1.55L81.34 1.55Q80.3-2.65 79.59-6.55 78.9-10.45 78.42-14.35 77.95-18.25 77.67-22.23 77.4-26.2 77.25-30.55L77.25-30.55Q76.3-29.05 75.25-26.63 74.2-24.2 73.2-21.3 72.2-18.4 71.27-15.2 70.34-12 69.65-8.95 68.95-5.9 68.55-3.18 68.14-0.45 68.14 1.55L68.14 1.55Q68.14 2.6 68.17 3.05 68.2 3.5 68.3 3.8ZM130.84-20.85L130.84-20.85Q132.44-20.85 133.37-19.95 134.29-19.05 134.29-17.45L134.29-17.45Q134.29-17.05 134.24-16.63 134.19-16.2 134.04-15.9L134.04-15.9Q133.39-16 132.59-16.07 131.79-16.15 130.69-16.15L130.69-16.15Q128.44-16.15 126.19-15.75 123.94-15.35 121.89-15.1L121.89-15.1Q119.64-9.8 118.19-5.15 116.74-0.5 115.94 4.05L115.94 4.05Q114.24 3.65 112.94 2.6 111.64 1.55 110.49-0.35L110.49-0.35Q110.84-1.15 111.34-2.27 111.84-3.4 112.54-5.13 113.24-6.85 114.22-9.33 115.19-11.8 116.54-15.25L116.54-15.25Q114.44-15.95 113.79-17.7L113.79-17.7Q114.04-17.95 115.19-18.28 116.34-18.6 117.99-19L117.99-19Q118.74-20.95 119.29-22.48 119.84-24 120.29-25.38 120.74-26.75 121.12-28.08 121.49-29.4 121.79-30.9L121.79-30.9 121.54-30.9Q119.64-30.9 118.47-31.8 117.29-32.7 117.29-34.15L117.29-34.15Q117.29-34.55 117.42-35.1 117.54-35.65 117.74-36.05L117.74-36.05Q118.69-35.9 119.62-35.85 120.54-35.8 122.04-35.8L122.04-35.8Q125.19-35.8 127.94-35.98 130.69-36.15 132.92-36.35 135.14-36.55 136.74-36.73 138.34-36.9 139.19-36.9L139.19-36.9Q140.34-36.9 141.24-35.7 142.14-34.5 142.64-32.3L142.64-32.3Q141.04-32.45 140.06-32.5 139.09-32.55 138.34-32.55L138.34-32.55Q135.79-32.55 133.67-32.33 131.54-32.1 129.64-31.8L129.64-31.8Q129.34-31.35 128.97-30.65 128.59-29.95 127.99-28.68 127.39-27.4 126.47-25.35 125.54-23.3 124.14-20.15L124.14-20.15Q126.09-20.45 127.87-20.65 129.64-20.85 130.84-20.85ZM136.94-3.2L136.94-3.2Q136.94-5.4 137.99-9.38 139.04-13.35 140.94-18.65L140.94-18.65Q144.04-27.1 146.76-32.73 149.49-38.35 152.09-41.5L152.09-41.5Q152.69-41.4 153.56-41 154.44-40.6 155.29-40.13 156.14-39.65 156.81-39.15 157.49-38.65 157.69-38.35L157.69-38.35Q153.79-33.75 150.84-28.45 147.89-23.15 145.44-16.3L145.44-16.3Q143.34-10.4 142.24-5.68 141.14-0.95 141.14 2.2L141.14 2.2Q141.14 3.05 141.14 3.25 141.14 3.45 141.19 3.65L141.19 3.65Q140.49 3.55 139.99 3.3 139.49 3.05 139.34 2.7L139.34 2.7Q139.24 2.45 138.79 1.98 138.34 1.5 137.99 1.25L137.99 1.25Q137.54 0.95 137.24-0.33 136.94-1.6 136.94-3.2ZM148.84-3.35L148.84-3.35Q148.84-3.8 148.91-4.48 148.99-5.15 149.19-6.28 149.39-7.4 149.71-9 150.04-10.6 150.54-12.85L150.54-12.85Q150.64-13.35 150.99-14.45 151.34-15.55 151.91-16.78 152.49-18 153.31-19.15 154.14-20.3 155.29-20.85L155.29-20.85Q156.14-20.65 157.54-19.83 158.94-19 159.94-17.55L159.94-17.55Q158.79-16.25 158.01-14.95 157.24-13.65 156.61-12.25 155.99-10.85 155.46-9.35 154.94-7.85 154.29-6.2L154.29-6.2Q153.74-4.8 153.29-3.33 152.84-1.85 152.79-0.75L152.79-0.75Q152.79 0.15 152.76 0.53 152.74 0.9 152.49 0.9L152.49 0.9Q152.29 0.9 151.69 0.65 151.09 0.4 150.46-0.13 149.84-0.65 149.34-1.45 148.84-2.25 148.84-3.35ZM158.39-25.05L158.39-25.05Q158.39-25.35 158.54-25.95L158.54-25.95Q158.29-26.2 158.11-26.7 157.94-27.2 157.94-27.6L157.94-27.6Q157.94-28.05 158.06-28.83 158.19-29.6 158.39-30.5 158.59-31.4 158.89-32.38 159.19-33.35 159.49-34.15L159.49-34.15Q160.09-34.15 160.96-33.83 161.84-33.5 162.74-32.98 163.64-32.45 164.39-31.83 165.14-31.2 165.54-30.65L165.54-30.65Q164.99-30.1 164.09-29.13 163.19-28.15 162.34-27.08 161.49-26 160.79-25.05 160.09-24.1 159.89-23.7L159.89-23.7Q159.29-23.8 158.84-24.23 158.39-24.65 158.39-25.05ZM176.13-0.3L176.13-0.3Q175.58 0.55 174.41 1.07 173.23 1.6 172.18 1.7L172.18 1.7Q171.33 0.7 170.28-1.03 169.23-2.75 168.28-5.05L168.28-5.05Q165.73-2.75 163.18-0.88 160.63 1 158.43 2.3L158.43 2.3Q157.88 2.2 157.53 1.7 157.18 1.2 157.13 0.4L157.13 0.4Q158.13-0.15 159.51-1.05 160.88-1.95 162.31-3.03 163.73-4.1 165.06-5.28 166.38-6.45 167.33-7.55L167.33-7.55Q166.48-9.55 165.76-11.68 165.03-13.8 164.51-15.78 163.98-17.75 163.68-19.38 163.38-21 163.38-22L163.38-22Q163.38-22.7 163.56-22.93 163.73-23.15 164.38-23.15L164.38-23.15Q164.88-23.15 165.61-23.05 166.33-22.95 167.08-22.8 167.83-22.65 168.58-22.48 169.33-22.3 169.88-22.1L169.88-22.1Q169.78-21.55 169.78-21.15 169.78-20.75 169.78-20L169.78-20Q169.78-18.05 170.11-16.03 170.43-14 171.18-11.65L171.18-11.65Q173.23-14 174.98-16.88 176.73-19.75 178.53-23.75L178.53-23.75Q179.78-23.5 180.68-23.03 181.58-22.55 181.83-22L181.83-22Q181.28-19.7 178.73-16.2 176.18-12.7 172.23-8.75L172.23-8.75Q172.93-6.85 173.93-4.73 174.93-2.6 176.13-0.3Z" opacity="1" transform="matrix(1,0,0,1,0,0)" fill="black" class="wordmark-text-0" id="SvgjsPath2086"></path></svg></g></svg></g></svg></g></svg></g><g transform="matrix(1,0,0,1,53.989426353567836,0)"><svg viewBox="0 0 84.02114729286433 70.89284302835428" height="70.89284302835428" width="84.02114729286433"><g><svg xmlns="http://www.w3.org/2000/svg" xmlns:xlink="http://www.w3.org/1999/xlink" version="1.0" x="0" y="0" viewBox="160 210 640 540" enable-background="new 0 0 960 960" xml:space="preserve" height="70.89284302835428" width="84.02114729286433" class="icon-icon-0" data-fill-palette-color="accent" id="SvgjsSvg2085"><g fill="black"><path fill="black" d="M160 210v500c0 22.063 17.906 40 40 40h560c22.094 0 40-17.938 40-40V210H160zM540 660c0 10.969-9 20-20 20H240c-11 0-20-9.031-20-20V380.016c0-11.016 9-20 20-20h280c11 0 20 8.984 20 20V660zM740 675.969c0 2.234-1.797 4.031-4 4.031H586.859c-2.203 0-4.016-1.797-4.016-4.031v-21.094c0-2.188 1.813-3.969 4.016-3.969H736c2.203 0 4 1.781 4 3.969V675.969zM740 617.781c0 2.188-1.797 3.969-4 3.969H586.859c-2.203 0-4.016-1.781-4.016-3.969V596.75c0-2.219 1.813-4.016 4.016-4.016H736c2.203 0 4 1.797 4 4.016V617.781zM740 559.609c0 2.234-1.797 4.016-4 4.016H586.859c-2.203 0-4.016-1.781-4.016-4.016v-21.094c0-2.188 1.813-3.984 4.016-3.984H736c2.203 0 4 1.797 4 3.984V559.609zM740 501.438c0 2.234-1.797 4.031-4 4.031H586.859c-2.203 0-4.016-1.797-4.016-4.031v-21.094c0-2.188 1.813-3.969 4.016-3.969H736c2.203 0 4 1.781 4 3.969V501.438zM740 443.25c0 2.188-1.797 3.969-4 3.969H586.859c-2.203 0-4.016-1.781-4.016-3.969v-21.016c0-2.219 1.813-4.016 4.016-4.016H736c2.203 0 4 1.797 4 4.016V443.25zM740 385.094c0 2.219-1.797 4.016-4 4.016H586.859c-2.203 0-4.016-1.797-4.016-4.016V364c0-2.188 1.813-3.984 4.016-3.984H736c2.203 0 4 1.797 4 3.984V385.094z"></path><polygon fill="black" points="380,400.016 410.688,491.641 510,491.641 429.656,548.313 460.328,640 380,583.313 299.672,640    330.344,548.313 250,491.641 349.313,491.641  "></polygon></g></svg></g></svg></g><g></g></svg></g></svg></g></svg></g></svg></g><defs><mask></mask></defs></svg><rect width="320" height="360" fill="black" stroke="none" visibility="hidden"></rect></g></mask></svg><rect width="320" height="360" fill="black" stroke="none" visibility="hidden"></rect></g></mask></svg><rect width="320" height="360" fill="black" stroke="none" visibility="hidden"></rect></g></mask><linearGradient x1="0.054" x2="0.941" y1="0.5" y2="0.5" id="a0d9b0bb-3f98-4067-9610-68cabb72de26"><stop stop-color="#9c7945" offset="0"></stop><stop stop-color="#faf3aa" offset="0.498"></stop><stop stop-color="#9c7945" offset="1"></stop></linearGradient></svg><rect width="320" height="360" fill="none" stroke="none" visibility="hidden"></rect></g></svg></g></svg>